<svg width="141" height="100" viewBox="0 0 141 100" fill="none" xmlns="http://www.w3.org/2000/svg">
<path opacity="0.1" d="M15.7061 45.9461C18.2373 45.9461 20.8784 45.726 23.6297 45.2858C26.3809 44.7355 28.4168 44.0202 29.7374 43.1398V41.6541C29.7374 41.214 29.7374 40.7738 29.7374 40.3336C29.8474 39.8934 29.9024 39.5082 29.9024 39.1781C29.7924 35.2163 29.4622 31.5297 28.912 28.1181C28.3618 24.5966 27.4263 21.5702 26.1058 19.0391C24.7852 16.398 22.9694 14.3621 20.6583 12.9314C18.4574 11.3907 15.7061 10.6204 12.4047 10.6204C9.76351 10.6204 7.45249 11.1706 5.47161 12.2711C3.49073 13.3716 1.89502 14.8022 0.684489 16.563C-0.526048 18.3238 -1.46146 20.2497 -2.12176 22.3406C-2.672 24.4315 -2.94712 26.4674 -2.94712 28.4483C-2.94712 34.3909 -1.51649 38.7929 1.34478 41.6541C4.3161 44.5154 9.10322 45.9461 15.7061 45.9461ZM27.7565 61.9581C25.4455 63.0586 22.8593 63.884 19.9981 64.4342C17.2468 64.8744 14.8808 65.0945 12.8999 65.0945C5.74673 65.0945 -0.360974 64.2692 -5.42322 62.6184C-10.4855 60.8577 -14.6673 58.4366 -17.9688 55.3552C-21.1602 52.1638 -23.5262 48.3671 -25.0669 43.9652C-26.6076 39.5632 -27.378 34.7211 -27.378 29.4387C-27.378 25.0368 -26.6626 20.5248 -25.232 15.9027C-23.6913 11.2807 -21.3253 7.09883 -18.1339 3.35717C-14.9424 -0.494536 -10.9257 -3.63092 -6.08351 -6.052C-1.13132 -8.58312 4.81132 -9.84868 11.7444 -9.84868C25.9407 -9.84868 36.6154 -5.44673 43.7686 3.35717C51.0318 12.051 54.6634 24.5966 54.6634 40.9939C54.6634 51.7786 53.2328 61.2979 50.3715 69.5515C47.6203 77.8052 43.2734 84.7382 37.3307 90.3507C31.4981 95.9632 24.0148 100.255 14.8808 103.226C5.74673 106.088 -5.09307 107.573 -17.6386 107.683C-17.7487 104.162 -17.9138 100.75 -18.1339 97.4489C-18.354 94.1474 -18.574 90.7359 -18.7941 87.2143C-12.5214 87.1043 -6.85385 86.6641 -1.79161 85.8938C3.27064 85.0134 7.72761 83.6378 11.5793 81.7669C15.431 79.7861 18.6775 77.1999 21.3186 74.0085C24.0699 70.8171 26.2158 66.8003 27.7565 61.9581ZM140.066 49.9078C140.066 69.1663 136.379 83.9679 129.006 94.3125C121.742 104.547 111.673 109.664 98.7973 109.664C85.9216 109.664 75.7971 104.547 68.4238 94.3125C61.1606 83.9679 57.529 69.1663 57.529 49.9078C57.529 40.3336 58.4644 31.8598 60.3352 24.4865C62.3161 17.1133 65.1224 10.8955 68.754 5.83327C72.3856 0.771029 76.7325 -3.08068 81.7947 -5.72186C86.857 -8.36303 92.5245 -9.68361 98.7973 -9.68361C111.673 -9.68361 121.742 -4.51132 129.006 5.83327C136.379 16.0678 140.066 30.7593 140.066 49.9078ZM114.974 49.9078C114.974 44.1853 114.699 39.013 114.149 34.3909C113.599 29.6588 112.718 25.587 111.508 22.1755C110.297 18.764 108.647 16.1228 106.556 14.252C104.465 12.3812 101.879 11.4458 98.7973 11.4458C95.7159 11.4458 93.1298 12.3812 91.0388 14.252C89.058 16.1228 87.4072 18.764 86.0866 22.1755C84.8761 25.587 83.9957 29.6588 83.4455 34.3909C82.8952 39.013 82.6201 44.1853 82.6201 49.9078C82.6201 55.6303 82.8952 60.8577 83.4455 65.5898C83.9957 70.3219 84.8761 74.3937 86.0866 77.8052C87.4072 81.2167 89.058 83.8579 91.0388 85.7287C93.1298 87.5995 95.7159 88.5349 98.7973 88.5349C101.879 88.5349 104.465 87.5995 106.556 85.7287C108.647 83.8579 110.297 81.2167 111.508 77.8052C112.718 74.3937 113.599 70.3219 114.149 65.5898C114.699 60.8577 114.974 55.6303 114.974 49.9078Z" fill="white"/>
</svg>
