<svg width="124" height="89" viewBox="0 0 124 89" fill="none" xmlns="http://www.w3.org/2000/svg">
<path d="M32.0183 41.5827C33.8763 41.5827 35.815 41.4211 37.8345 41.098C39.8541 40.6941 41.3485 40.169 42.3179 39.5228V38.4322C42.3179 38.1091 42.3179 37.786 42.3179 37.4629C42.3986 37.1398 42.439 36.857 42.439 36.6147C42.3582 33.7066 42.1159 31.0004 41.712 28.4963C41.3081 25.9113 40.6215 23.6898 39.6521 21.8319C38.6827 19.8931 37.3499 18.3987 35.6535 17.3485C34.0379 16.2176 32.0183 15.6522 29.5949 15.6522C27.6562 15.6522 25.9598 16.0561 24.5058 16.8639C23.0517 17.6717 21.8804 18.7218 20.9918 20.0143C20.1032 21.3068 19.4166 22.7204 18.9319 24.2553C18.528 25.7901 18.3261 27.2845 18.3261 28.7386C18.3261 33.1007 19.3762 36.332 21.4765 38.4322C23.6576 40.5325 27.1715 41.5827 32.0183 41.5827ZM40.8638 53.3363C39.1674 54.1441 37.2691 54.7499 35.1688 55.1538C33.1493 55.4769 31.4125 55.6385 29.9584 55.6385C24.7077 55.6385 20.2244 55.0326 16.5085 53.8209C12.7926 52.5284 9.72293 50.7513 7.29951 48.4894C4.95688 46.1468 3.2201 43.3599 2.08917 40.1286C0.958244 36.8974 0.392781 33.3431 0.392781 29.4656C0.392781 26.2344 0.917854 22.9224 1.968 19.5296C3.09893 16.1368 4.83571 13.0672 7.17834 10.3206C9.52098 7.49332 12.4695 5.19108 16.0238 3.41391C19.6589 1.55596 24.0211 0.62698 29.1102 0.62698C39.5309 0.62698 47.3666 3.8582 52.6174 10.3206C57.9489 16.7023 60.6146 25.9113 60.6146 37.9476C60.6146 45.8641 59.5645 52.8516 57.4642 58.9101C55.4447 64.9686 52.2539 70.0578 47.8917 74.1776C43.6103 78.2974 38.1173 81.4479 31.4125 83.6289C24.7077 85.7292 16.7508 86.8198 7.54185 86.9005C7.46107 84.3156 7.3399 81.8114 7.17834 79.388C7.01678 76.9645 6.85522 74.4603 6.69366 71.8754C11.2981 71.7946 15.4583 71.4715 19.1742 70.906C22.8901 70.2598 26.1618 69.25 28.9891 67.8767C31.8164 66.4227 34.1994 64.5243 36.1381 62.1817C38.1577 59.8391 39.7329 56.8906 40.8638 53.3363ZM123.303 44.4908C123.303 58.6274 120.597 69.4923 115.185 77.0857C109.853 84.5983 102.462 88.3546 93.0108 88.3546C83.5594 88.3546 76.1276 84.5983 70.7154 77.0857C65.3838 69.4923 62.7181 58.6274 62.7181 44.4908C62.7181 37.4629 63.4047 31.2428 64.778 25.8305C66.232 20.4182 68.2919 15.8541 70.9577 12.1382C73.6234 8.4223 76.8143 5.59498 80.5302 3.65625C84.2461 1.71751 88.4063 0.748149 93.0108 0.748149C102.462 0.748149 109.853 4.54483 115.185 12.1382C120.597 19.6508 123.303 30.435 123.303 44.4908ZM104.886 44.4908C104.886 40.2902 104.684 36.4935 104.28 33.1007C103.876 29.6272 103.229 26.6383 102.341 24.1341C101.452 21.6299 100.241 19.6912 98.7058 18.3179C97.171 16.9446 95.2726 16.258 93.0108 16.258C90.7489 16.258 88.8506 16.9446 87.3157 18.3179C85.8617 19.6912 84.65 21.6299 83.6806 24.1341C82.792 26.6383 82.1458 29.6272 81.7419 33.1007C81.338 36.4935 81.136 40.2902 81.136 44.4908C81.136 48.6914 81.338 52.5284 81.7419 56.002C82.1458 59.4756 82.792 62.4644 83.6806 64.9686C84.65 67.4728 85.8617 69.4116 87.3157 70.7848C88.8506 72.1581 90.7489 72.8447 93.0108 72.8447C95.2726 72.8447 97.171 72.1581 98.7058 70.7848C100.241 69.4116 101.452 67.4728 102.341 64.9686C103.229 62.4644 103.876 59.4756 104.28 56.002C104.684 52.5284 104.886 48.6914 104.886 44.4908Z" fill="white"/>
</svg>
