<svg width="166" height="63" fill="none" xmlns="http://www.w3.org/2000/svg"><path d="M65.587 14.454a113.95 113.95 0 01-.193 3.26 24.609 24.609 0 01-.386 3.139 14.253 14.253 0 01-.797 2.85 7.378 7.378 0 01-1.425 2.341c-.595.676-1.344 1.215-2.245 1.618-.902.402-2.004.628-3.308.676l-.41-3.284c1.158-.128 2.052-.418 2.68-.869.627-.467 1.102-1.175 1.424-2.125.402-1.175.684-2.688.845-4.54.177-1.866.266-3.95.266-6.253h11.42V28h-3.766V14.454h-4.105zM77.323 28V11.267h3.743v9.876c.58-.87 1.199-1.771 1.859-2.705.66-.95 1.32-1.859 1.98-2.728a74.706 74.706 0 011.98-2.487 29.47 29.47 0 011.762-1.956h3.067V28h-3.718V17.038a57.668 57.668 0 00-4.009 5.288 84.21 84.21 0 00-3.5 5.674h-3.164zm19.748-10.213h2.535c.435 0 .837-.033 1.207-.097.387-.065.717-.177.99-.338.29-.161.515-.37.676-.628.161-.258.242-.58.242-.966 0-.547-.217-.957-.652-1.231-.435-.274-1.046-.41-1.835-.41-.885 0-1.658.104-2.318.313a8.819 8.819 0 00-1.883.797l-1.208-2.97c.644-.402 1.417-.724 2.318-.966.918-.257 1.956-.386 3.115-.386.901 0 1.739.105 2.511.314.773.193 1.441.49 2.004.893a3.9 3.9 0 011.304 1.497c.322.596.483 1.296.483 2.101 0 .612-.169 1.223-.507 1.835-.322.596-.821 1.103-1.497 1.521.37.193.716.419 1.038.676.338.258.628.556.869.894.258.338.459.724.604 1.159.145.418.217.893.217 1.424 0 1.787-.635 3.09-1.907 3.912-1.256.805-3.01 1.207-5.264 1.207-.563 0-1.127-.04-1.69-.12a23.422 23.422 0 01-1.594-.29 16.474 16.474 0 01-1.424-.435c-.435-.161-.821-.33-1.16-.507l1.111-2.946c.226.097.5.21.822.338.338.113.708.226 1.11.338.403.113.821.21 1.256.29.434.08.869.12 1.304.12 1.062 0 1.915-.152 2.559-.458.66-.306.99-.837.99-1.594 0-.466-.105-.845-.314-1.135a1.889 1.889 0 00-.869-.651c-.354-.161-.781-.266-1.28-.314a12.105 12.105 0 00-1.593-.097h-2.27v-3.09zM110.31 28V11.267h3.743v9.876c.579-.87 1.199-1.771 1.859-2.705a74.447 74.447 0 013.96-5.215 29.59 29.59 0 011.762-1.956h3.067V28h-3.719V17.038a57.847 57.847 0 00-4.008 5.288 84.658 84.658 0 00-3.5 5.674h-3.163zm28.343-16.733h3.767V28h-3.767v-7.099h-6.326V28h-3.766V11.267h3.766v6.399h6.326v-6.399zM150.06 28h-3.767V11.267h11.421v3.187h-7.654V28zM61.434 44.621c0 .822.097 1.562.29 2.222.21.66.499 1.231.869 1.714.386.467.853.83 1.4 1.087.548.257 1.175.386 1.884.386.692 0 1.312-.129 1.859-.386a3.744 3.744 0 001.4-1.087 4.923 4.923 0 00.87-1.714c.209-.66.314-1.4.314-2.222 0-.82-.105-1.56-.314-2.22-.194-.677-.483-1.248-.87-1.715a3.646 3.646 0 00-1.4-1.11c-.547-.258-1.167-.387-1.86-.387-.708 0-1.335.137-1.883.41a3.902 3.902 0 00-1.4 1.111c-.37.467-.66 1.038-.87 1.714a7.806 7.806 0 00-.289 2.197zm12.773 0c0 1.433-.217 2.697-.652 3.791-.419 1.079-.998 1.988-1.738 2.729a7.248 7.248 0 01-2.656 1.642c-1.014.37-2.11.555-3.284.555a9.361 9.361 0 01-3.236-.555 7.524 7.524 0 01-2.656-1.642c-.756-.74-1.352-1.65-1.786-2.729-.435-1.094-.652-2.358-.652-3.79 0-1.433.225-2.689.676-3.767.45-1.095 1.054-2.012 1.81-2.753a7.642 7.642 0 012.657-1.666 9.221 9.221 0 013.187-.555c1.143 0 2.221.185 3.235.555 1.014.37 1.9.926 2.656 1.666.757.74 1.352 1.658 1.787 2.753.435 1.078.652 2.334.652 3.767zm13.233-8.354h3.766V53H87.44v-7.099h-6.326V53h-3.767V36.267h3.767v6.399h6.326v-6.399zm14.955 3.187a118.496 118.496 0 01-.193 3.26 24.734 24.734 0 01-.387 3.139 14.187 14.187 0 01-.797 2.85 7.368 7.368 0 01-1.424 2.341c-.596.676-1.344 1.216-2.246 1.618-.901.402-2.004.628-3.308.676l-.41-3.284c1.159-.129 2.052-.418 2.68-.869.628-.467 1.103-1.175 1.425-2.125.402-1.175.684-2.688.845-4.54.177-1.866.265-3.95.265-6.253h11.421V53h-3.767V39.454h-4.104zM125.334 53a33.688 33.688 0 00-.603-1.787l-.628-1.835h-6.519c-.21.612-.427 1.224-.652 1.835a57.386 57.386 0 00-.58 1.787h-3.911a294.125 294.125 0 011.787-4.998c.563-1.53 1.11-2.97 1.641-4.322a229.468 229.468 0 011.594-3.84 92.188 92.188 0 011.642-3.573h3.598c.547 1.16 1.086 2.35 1.617 3.574a101.925 101.925 0 011.594 3.839 146.542 146.542 0 011.666 4.322c.563 1.53 1.159 3.195 1.787 4.998h-4.033zm-4.515-12.942c-.08.242-.201.572-.362.99l-.555 1.449c-.21.547-.443 1.15-.701 1.81-.241.66-.49 1.353-.748 2.077h4.757a239.93 239.93 0 00-.749-2.076 48.854 48.854 0 00-.7-1.811 636.61 636.61 0 00-.555-1.449c-.161-.419-.29-.748-.387-.99zM131.533 53V36.267h3.742v9.876c.58-.87 1.199-1.771 1.859-2.705a74.447 74.447 0 013.96-5.215 29.578 29.578 0 011.763-1.956h3.066V53h-3.718V42.038a57.487 57.487 0 00-4.008 5.288A83.844 83.844 0 00134.696 53h-3.163zm7.485-18.206a5.181 5.181 0 01-1.497-.217 4.632 4.632 0 01-1.28-.676 4.163 4.163 0 01-.966-1.087 3.66 3.66 0 01-.434-1.473l2.487-.651c.128.611.338 1.046.627 1.303a1.6 1.6 0 001.063.387c.418 0 .772-.113 1.062-.338.306-.242.523-.684.652-1.328l2.463.652a3.432 3.432 0 01-.459 1.473 3.487 3.487 0 01-.942 1.062 4.21 4.21 0 01-1.279.676 5.181 5.181 0 01-1.497.217zm20.858 1.473h3.767V53h-3.767v-7.099h-6.326V53h-3.767V36.267h3.767v6.399h6.326v-6.399z" fill="#142438"/><path d="M50.806 31.44c0 14.029-11.373 25.402-25.403 25.402S0 45.47 0 31.44 11.373 6.036 25.403 6.036 50.806 17.41 50.806 31.44zm-44.07 0c0 10.31 8.357 18.667 18.667 18.667 10.31 0 18.668-8.358 18.668-18.668 0-10.31-8.358-18.668-18.668-18.668-10.31 0-18.668 8.358-18.668 18.668z" fill="#5C00A5"/><circle cx="25.403" cy="31.439" r="3.27" fill="#F2994A"/><circle cx="15.845" cy="31.439" r="3.27" fill="#5C00A5"/><circle cx="34.961" cy="31.439" r="3.27" fill="#219653"/></svg>