<svg width="200" height="191" fill="none" xmlns="http://www.w3.org/2000/svg"><path opacity=".1" d="M47.706 94.593c2.531 0 5.172-.22 7.924-.66 2.75-.55 4.787-1.266 6.107-2.147v-2.805c.11-.44.165-.826.165-1.156-.11-3.962-.44-7.649-.99-11.06-.55-3.522-1.486-6.548-2.806-9.08-1.32-2.64-3.137-4.676-5.448-6.107-2.2-1.54-4.952-2.31-8.253-2.31-2.642 0-4.953.55-6.933 1.65-1.981 1.1-3.577 2.531-4.788 4.292a21.634 21.634 0 00-2.806 5.777c-.55 2.091-.825 4.127-.825 6.108 0 5.943 1.43 10.345 4.292 13.206 2.971 2.861 7.758 4.292 14.361 4.292zm12.05 16.012c-2.31 1.1-4.897 1.926-7.758 2.476-2.751.44-5.117.66-7.098.66-7.153 0-13.261-.825-18.323-2.476-5.063-1.761-9.244-4.182-12.546-7.263-3.191-3.191-5.557-6.988-7.098-11.39-1.54-4.402-2.311-9.244-2.311-14.526 0-4.403.715-8.915 2.146-13.537 1.54-4.622 3.907-8.803 7.098-12.545 3.192-3.852 7.208-6.988 12.05-9.41 4.953-2.53 10.895-3.796 17.828-3.796 14.197 0 24.871 4.402 32.025 13.206 7.263 8.694 10.894 21.24 10.894 37.637 0 10.784-1.43 20.304-4.291 28.557-2.752 8.254-7.099 15.187-13.041 20.799-5.833 5.613-13.316 9.905-22.45 12.876-9.134 2.861-19.974 4.347-32.52 4.457-.11-3.521-.275-6.933-.495-10.234-.22-3.302-.44-6.713-.66-10.235 6.273-.11 11.94-.55 17.002-1.321 5.063-.88 9.52-2.256 13.371-4.126 3.852-1.981 7.099-4.567 9.74-7.759 2.75-3.191 4.897-7.208 6.438-12.05zm61.797 47.871c-2.971 0-6.108-.22-9.409-.66a87.008 87.008 0 01-9.574-1.486c-3.082-.66-5.888-1.375-8.419-2.146-2.531-.77-4.512-1.485-5.943-2.146l4.788-20.469c2.86 1.211 6.492 2.531 10.894 3.962 4.512 1.321 10.07 1.981 16.673 1.981 7.593 0 13.151-1.431 16.672-4.292 3.522-2.861 5.282-6.713 5.282-11.555 0-2.972-.66-5.448-1.98-7.429-1.211-2.09-2.917-3.741-5.118-4.952-2.201-1.32-4.842-2.201-7.923-2.641-2.972-.55-6.163-.825-9.574-.825h-9.575V86.009h10.895c2.421 0 4.732-.22 6.933-.66 2.311-.44 4.347-1.156 6.108-2.146 1.761-1.1 3.136-2.531 4.127-4.292 1.1-1.871 1.65-4.182 1.65-6.933 0-2.091-.44-3.907-1.32-5.448a11.473 11.473 0 00-3.467-3.796c-1.32-.99-2.916-1.706-4.787-2.146a18.156 18.156 0 00-5.447-.826c-4.732 0-9.134.716-13.206 2.146-3.962 1.43-7.593 3.192-10.895 5.283L90.19 49.198c1.761-1.1 3.797-2.256 6.108-3.467 2.421-1.21 5.062-2.31 7.923-3.301a72.885 72.885 0 019.08-2.476c3.301-.66 6.768-.99 10.399-.99 6.713 0 12.491.825 17.333 2.475 4.952 1.54 9.024 3.797 12.215 6.768 3.192 2.861 5.558 6.273 7.098 10.235 1.541 3.852 2.311 8.088 2.311 12.71 0 4.512-1.265 8.914-3.796 13.206-2.531 4.182-5.943 7.373-10.235 9.575 5.943 2.42 10.51 6.052 13.701 10.894 3.302 4.732 4.952 10.455 4.952 17.168 0 5.282-.88 10.179-2.641 14.691-1.761 4.402-4.512 8.254-8.253 11.556-3.742 3.191-8.529 5.722-14.362 7.593-5.722 1.761-12.545 2.641-20.469 2.641zm55.563-86.841c.384 0 .756-.108 1.116-.324.36-.24.672-.576.936-1.008a5.88 5.88 0 00.684-1.62c.168-.624.252-1.332.252-2.124 0-.648-.168-1.14-.504-1.476-.312-.36-.72-.54-1.224-.54-.384 0-.768.12-1.152.36-.36.24-.684.576-.972 1.008-.288.432-.528.972-.72 1.62-.168.624-.252 1.332-.252 2.124 0 .648.18 1.14.54 1.476.36.336.792.504 1.296.504zm15.516-9.936h5.184l-20.088 24.948h-5.184l20.088-24.948zm-13.968-.576c.792 0 1.512.108 2.16.324a4.443 4.443 0 011.728 1.008c.48.432.852.984 1.116 1.656.264.648.396 1.416.396 2.304 0 1.368-.204 2.592-.612 3.672-.408 1.056-.96 1.956-1.656 2.7a7.15 7.15 0 01-2.34 1.728c-.888.384-1.8.576-2.736.576a7.141 7.141 0 01-2.196-.324 4.734 4.734 0 01-1.692-.972 4.694 4.694 0 01-1.116-1.656c-.264-.672-.396-1.452-.396-2.34 0-1.368.204-2.58.612-3.636.408-1.08.948-1.992 1.62-2.736a7.084 7.084 0 012.376-1.692 6.488 6.488 0 012.736-.612zm13.428 22.644c.384 0 .756-.108 1.116-.324.36-.24.672-.576.936-1.008a5.88 5.88 0 00.684-1.62c.168-.624.252-1.332.252-2.124 0-.648-.168-1.14-.504-1.476-.312-.36-.72-.54-1.224-.54-.384 0-.768.12-1.152.36-.36.24-.684.576-.972 1.008-.288.432-.528.972-.72 1.62-.168.624-.252 1.332-.252 2.124 0 .648.18 1.14.54 1.476.36.336.792.504 1.296.504zm1.548-10.512c.792 0 1.512.108 2.16.324a4.443 4.443 0 011.728 1.008c.48.432.852.984 1.116 1.656.264.648.396 1.416.396 2.304 0 1.368-.204 2.592-.612 3.672-.408 1.056-.96 1.956-1.656 2.7a7.15 7.15 0 01-2.34 1.728c-.888.384-1.8.576-2.736.576a7.141 7.141 0 01-2.196-.324 4.734 4.734 0 01-1.692-.972 4.694 4.694 0 01-1.116-1.656c-.264-.672-.396-1.452-.396-2.34 0-1.368.204-2.58.612-3.636.408-1.08.948-1.992 1.62-2.736a7.084 7.084 0 012.376-1.692 6.488 6.488 0 012.736-.612z" fill="#fff"/></svg>