<svg width="145" height="100" fill="none" xmlns="http://www.w3.org/2000/svg"><path d="M35.018 46.583a36.84 36.84 0 005.816-.485c2.02-.404 3.514-.929 4.484-1.575v-2.06a3.6 3.6 0 00.121-.848c-.08-2.908-.323-5.615-.727-8.119-.404-2.585-1.09-4.806-2.06-6.664-.97-1.939-2.302-3.433-3.998-4.483-1.616-1.131-3.636-1.697-6.06-1.697-1.938 0-3.634.404-5.088 1.212-1.454.808-2.626 1.858-3.514 3.15a15.88 15.88 0 00-2.06 4.241c-.404 1.535-.606 3.03-.606 4.484 0 4.362 1.05 7.593 3.15 9.693 2.182 2.1 5.696 3.15 10.542 3.15zm8.846 11.753c-1.697.808-3.595 1.414-5.695 1.818-2.02.323-3.756.484-5.21.484-5.251 0-9.735-.605-13.45-1.817-3.716-1.293-6.786-3.07-9.21-5.332-2.342-2.342-4.079-5.13-5.21-8.36-1.13-3.232-1.696-6.786-1.696-10.663 0-3.232.525-6.544 1.575-9.936a27.441 27.441 0 015.21-9.21c2.343-2.827 5.291-5.129 8.846-6.906 3.635-1.858 7.997-2.787 13.086-2.787 10.42 0 18.257 3.231 23.507 9.694 5.332 6.381 7.998 15.59 7.998 27.627 0 7.916-1.05 14.904-3.15 20.962-2.02 6.059-5.211 11.148-9.573 15.268-4.282 4.12-9.775 7.27-16.48 9.45-6.704 2.101-14.661 3.192-23.87 3.272-.08-2.584-.202-5.089-.364-7.512a1828.23 1828.23 0 01-.484-7.513c4.604-.08 8.764-.403 12.48-.969 3.716-.646 6.988-1.656 9.815-3.03 2.827-1.453 5.21-3.352 7.15-5.694 2.019-2.343 3.594-5.291 4.725-8.846zm45.361 35.14c-2.18 0-4.483-.162-6.906-.485a63.852 63.852 0 01-7.028-1.09 75.972 75.972 0 01-6.18-1.576c-1.858-.565-3.312-1.09-4.362-1.575l3.514-15.025c2.1.889 4.766 1.858 7.997 2.908 3.312.97 7.391 1.454 12.238 1.454 5.574 0 9.653-1.05 12.238-3.15 2.585-2.1 3.878-4.928 3.878-8.482 0-2.181-.485-3.999-1.454-5.453-.889-1.535-2.141-2.747-3.757-3.635-1.615-.97-3.554-1.616-5.816-1.939-2.18-.404-4.523-.606-7.028-.606h-7.028v-14.54h7.998c1.777 0 3.473-.162 5.089-.485 1.696-.323 3.19-.848 4.483-1.575a8.707 8.707 0 003.03-3.15c.807-1.374 1.211-3.07 1.211-5.09 0-1.534-.323-2.867-.969-3.998a8.427 8.427 0 00-2.545-2.787c-.969-.727-2.14-1.252-3.514-1.575a13.328 13.328 0 00-3.998-.606c-3.474 0-6.705.525-9.694 1.575-2.908 1.05-5.574 2.342-7.997 3.877l-6.422-13.207a68.42 68.42 0 014.483-2.545 48.425 48.425 0 015.816-2.423 53.487 53.487 0 016.665-1.818c2.423-.485 4.968-.727 7.633-.727 4.928 0 9.169.606 12.723 1.818 3.635 1.13 6.624 2.787 8.967 4.968a19.405 19.405 0 015.21 7.512c1.131 2.828 1.697 5.938 1.697 9.33 0 3.312-.929 6.544-2.787 9.694-1.858 3.07-4.362 5.412-7.513 7.028 4.362 1.777 7.715 4.443 10.057 7.997 2.424 3.474 3.635 7.674 3.635 12.602 0 3.877-.646 7.472-1.938 10.784-1.293 3.231-3.312 6.059-6.059 8.482-2.746 2.343-6.26 4.2-10.542 5.574-4.2 1.292-9.209 1.939-15.025 1.939z" fill="#fff"/><path d="M122.116 48.988c.384 0 .756-.108 1.116-.324.36-.24.672-.576.936-1.008a5.88 5.88 0 00.684-1.62c.168-.624.252-1.332.252-2.124 0-.648-.168-1.14-.504-1.476-.312-.36-.72-.54-1.224-.54-.384 0-.768.12-1.152.36-.36.24-.684.576-.972 1.008-.288.432-.528.972-.72 1.62-.168.624-.252 1.332-.252 2.124 0 .648.18 1.14.54 1.476.36.336.792.504 1.296.504zm15.516-9.936h5.184L122.728 64h-5.184l20.088-24.948zm-13.968-.576c.792 0 1.512.108 2.16.324a4.443 4.443 0 011.728 1.008c.48.432.852.984 1.116 1.656.264.648.396 1.416.396 2.304 0 1.368-.204 2.592-.612 3.672-.408 1.056-.96 1.956-1.656 2.7a7.15 7.15 0 01-2.34 1.728c-.888.384-1.8.576-2.736.576a7.141 7.141 0 01-2.196-.324 4.734 4.734 0 01-1.692-.972 4.694 4.694 0 01-1.116-1.656c-.264-.672-.396-1.452-.396-2.34 0-1.368.204-2.58.612-3.636.408-1.08.948-1.992 1.62-2.736a7.084 7.084 0 012.376-1.692 6.488 6.488 0 012.736-.612zm13.428 22.644c.384 0 .756-.108 1.116-.324.36-.24.672-.576.936-1.008a5.88 5.88 0 00.684-1.62c.168-.624.252-1.332.252-2.124 0-.648-.168-1.14-.504-1.476-.312-.36-.72-.54-1.224-.54-.384 0-.768.12-1.152.36-.36.24-.684.576-.972 1.008-.288.432-.528.972-.72 1.62-.168.624-.252 1.332-.252 2.124 0 .648.18 1.14.54 1.476.36.336.792.504 1.296.504zm1.548-10.512c.792 0 1.512.108 2.16.324a4.443 4.443 0 011.728 1.008c.48.432.852.984 1.116 1.656.264.648.396 1.416.396 2.304 0 1.368-.204 2.592-.612 3.672-.408 1.056-.96 1.956-1.656 2.7a7.15 7.15 0 01-2.34 1.728c-.888.384-1.8.576-2.736.576a7.141 7.141 0 01-2.196-.324 4.734 4.734 0 01-1.692-.972 4.694 4.694 0 01-1.116-1.656c-.264-.672-.396-1.452-.396-2.34 0-1.368.204-2.58.612-3.636.408-1.08.948-1.992 1.62-2.736a7.084 7.084 0 012.376-1.692 6.488 6.488 0 012.736-.612z" fill="#F2C94C"/></svg>