<svg width="42" height="48" viewBox="0 0 42 48" fill="none" xmlns="http://www.w3.org/2000/svg">
<path d="M5.03006 9.38359C5.45307 9.38359 5.79601 9.04065 5.79601 8.61763V1.53191H36.2038V8.61763C36.2038 9.04065 36.5468 9.38359 36.9698 9.38359C37.3928 9.38359 37.7357 9.04065 37.7357 8.61763V0.765957C37.7357 0.342945 37.3928 0 36.9698 0H5.03006C4.60704 0 4.2641 0.342945 4.2641 0.765957V8.61763C4.2641 9.04065 4.60704 9.38359 5.03006 9.38359Z" fill="#27AE60"/>
<path d="M37.7358 29.6392V19.8516C37.7358 19.4285 37.3929 19.0856 36.9699 19.0856C36.5469 19.0856 36.2039 19.4285 36.2039 19.8516V29.5701H33.7339V17.5537H40.0337C40.4567 17.5537 40.7997 17.2107 40.7997 16.7877V11.6813C40.7997 11.2583 40.4567 10.9154 40.0337 10.9154H33.7339V8.61752C33.7339 8.19451 33.3909 7.85156 32.9679 7.85156H9.03204C8.60902 7.85156 8.26608 8.19451 8.26608 8.61752V10.9154H1.96623C1.54322 10.9154 1.20027 11.2583 1.20027 11.6813V16.7877C1.20027 17.2107 1.54322 17.5537 1.96623 17.5537H8.26608V29.5701H5.79602V19.8516C5.79602 19.4285 5.45307 19.0856 5.03006 19.0856C4.60705 19.0856 4.2641 19.4285 4.2641 19.8516V29.6392C2.23503 30.0021 0.689636 31.7786 0.689636 33.9106V42.0288C0.689636 42.4518 1.03258 42.7947 1.45559 42.7947H1.71091V47.2339C1.71091 47.6569 2.05386 47.9999 2.47687 47.9999H9.03204C9.45505 47.9999 9.79799 47.6569 9.79799 47.2339V45.0926C9.79799 44.6696 9.45505 44.3267 9.03204 44.3267C8.60902 44.3267 8.26608 44.6696 8.26608 45.0926V46.468H3.24283V42.7947H38.757V46.468H33.7338V45.0926C33.7338 44.6696 33.3908 44.3267 32.9678 44.3267C32.5448 44.3267 32.2018 44.6696 32.2018 45.0926V47.2339C32.2018 47.6569 32.5448 47.9999 32.9678 47.9999H39.523C39.946 47.9999 40.2889 47.6569 40.2889 47.2339V42.7947H40.5442C40.9673 42.7947 41.3102 42.4518 41.3102 42.0288V33.9106C41.3103 31.7786 39.7649 30.0021 37.7358 29.6392ZM36.9699 31.102C38.5185 31.102 39.7784 32.3619 39.7784 33.9106V37.1777H33.7339V31.102H36.9699ZM39.7784 41.2628H2.22155V38.7096H39.7783V41.2628H39.7784ZM9.7981 17.5537H32.2019V37.1776H9.7981V17.5537ZM39.2678 16.0218H37.7359V12.4473H39.2678V16.0218ZM36.204 12.4473V16.0218H33.734V12.4473H36.204ZM32.202 16.0218H21.766V9.38348H32.202V16.0218ZM9.7981 9.38348H20.2341V16.0218H9.7981V9.38348ZM8.26618 16.0218H5.79612V12.4473H8.26618V16.0218ZM2.73229 12.4473H4.26421V16.0218H2.73229V12.4473ZM5.03016 31.102H8.26618V37.1777H2.22165V33.9106C2.22165 32.3619 3.4816 31.102 5.03016 31.102Z" fill="#27AE60"/>
<path d="M12.0959 26.4545H29.904C30.327 26.4545 30.6699 26.1116 30.6699 25.6886C30.6699 23.2952 28.7228 21.3481 26.3295 21.3481H15.6703C13.277 21.3481 11.3299 23.2952 11.3299 25.6886C11.3299 26.1116 11.6728 26.4545 12.0959 26.4545ZM15.6703 22.8801H26.3295C27.6127 22.8801 28.6976 23.7451 29.0318 24.9226H12.968C13.3022 23.745 14.3872 22.8801 15.6703 22.8801Z" fill="#27AE60"/>
<path d="M29.9041 27.9863H12.0959C11.6728 27.9863 11.3299 28.3293 11.3299 28.7523C11.3299 29.1753 11.6728 29.5182 12.0959 29.5182H29.904C30.327 29.5182 30.6699 29.1753 30.6699 28.7523C30.6699 28.3293 30.3271 27.9863 29.9041 27.9863Z" fill="#27AE60"/>
<path d="M29.9041 31.0503H12.0959C11.6728 31.0503 11.3299 31.3932 11.3299 31.8163C11.3299 32.2393 11.6728 32.5822 12.0959 32.5822H29.904C30.327 32.5822 30.6699 32.2393 30.6699 31.8163C30.6699 31.3932 30.3271 31.0503 29.9041 31.0503Z" fill="#27AE60"/>
<path d="M29.9041 34.114H12.0959C11.6728 34.114 11.3299 34.457 11.3299 34.88C11.3299 35.303 11.6728 35.6459 12.0959 35.6459H29.904C30.327 35.6459 30.6699 35.303 30.6699 34.88C30.6699 34.457 30.3271 34.114 29.9041 34.114Z" fill="#27AE60"/>
</svg>
